<svg xmlns="http://www.w3.org/2000/svg" version="1.1" xmlns:xlink="http://www.w3.org/1999/xlink" xmlns:svgjs="http://svgjs.dev/svgjs" width="1440" height="560" preserveAspectRatio="none" viewBox="0 0 1440 560"><g mask="url(&quot;#SvgjsMask1024&quot;)" fill="none"><rect width="1440" height="560" x="0" y="0" fill="rgba(237, 237, 237, 1)"></rect><path d="M0,388.097C74.509,396.567,153.79,377.453,213.004,331.441C270.358,286.874,283.394,209.262,314.57,143.659C346.31,76.868,400.646,16.712,397.682,-57.178C394.62,-133.512,359.686,-212.938,298.436,-258.596C239.635,-302.429,154.54,-266.265,85.188,-290.122C10.589,-315.784,-39.382,-408.464,-117.993,-401.848C-196.036,-395.28,-253.637,-322.694,-297.636,-257.903C-338.695,-197.442,-342.433,-122.995,-356.114,-51.202C-370.502,24.301,-414.754,104.993,-379.837,173.466C-344.903,241.971,-250.951,248.482,-184.002,286.312C-121.716,321.507,-71.084,380.017,0,388.097" fill="#bebebe"></path><path d="M1440 1044.4859999999999C1537.872 1039.135 1642.181 1055.8890000000001 1725.209 1003.794 1808.536 951.511 1835.353 847.8779999999999 1886.891 764.088 1946.733 666.798 2041.859 585.7 2052.334 471.96 2063.761 347.885 2029.835 213.73000000000002 1946.0729999999999 121.48500000000001 1862.838 29.821000000000026 1726.104 24.57000000000005 1609.157-16.096000000000004 1485.239-59.186000000000035 1358.8319999999999-177.89300000000003 1239.052-124.36699999999996 1115.632-69.21400000000006 1120.628 109.51400000000001 1058.9180000000001 229.79000000000002 1014.069 317.203 948.807 390.55 925.851 486.077 901.197 588.671 885.458 697.511 922.805 796.1949999999999 961.298 897.906 1035.978 989.053 1134.017 1036.1190000000001 1227.901 1081.19 1336.013 1050.172 1440 1044.4859999999999" fill="#ffffff"></path></g><defs><mask id="SvgjsMask1024"><rect width="1440" height="560" fill="#ffffff"></rect></mask></defs></svg>